# xmcd
#
# Track frame offsets:
#	150
#	14335
#	27797
#	44160
#	60090
#	74962
#	92897
#	106117
#	124697
#	137912
#	156060
#	168067
#	185420
#	209392
#	228412
#	252317
#	265952
#	280850
#
# Disc length: 3986 seconds
# Revision: 2
# Processed by: cddbd v1.5.2PL0 Copyright (c) Steve Scherf et al.
# Submitted via: dBpowerAMP V12.0
#
DISCID=000f9012
DTITLE=Adauto Santos - Varanda Sertaneja
DYEAR=1998
DGENRE=Sertanejo
TTITLE0=Pingo D'Água
TTITLE1=Casinha Pequenina
TTITLE2=Velho Macho
TTITLE3=Moreninha Linda
TTITLE4=Vingança Do Chico Mineiro
TTITLE5=Maringá
TTITLE6=João De Barro
TTITLE7=Chitãozinho E Xororó
TTITLE8=Rio De Lágrimas
TTITLE9=Tristeza Do Jeca
TTITLE10=Saudades De Matão
TTITLE11=Triste Berrante
TTITLE12=Guacyra - Chuá Chuá
TTITLE13=Fogão De Lenha
TTITLE14=Luar Do Sertão
TTITLE15=Velho Realejo
TTITLE16=Cana Verde
TTITLE17=Poeira
EXTD=
EXTT0=
EXTT1=
EXTT2=
EXTT3=
EXTT4=
EXTT5=
EXTT6=
EXTT7=
EXTT8=
EXTT9=
EXTT10=
EXTT11=
EXTT12=
EXTT13=
EXTT14=
EXTT15=
EXTT16=
EXTT17=
PLAYORDER=
